<?xml version="1.0" standalone="no"?>
<!DOCTYPE svg PUBLIC "-//W3C//DTD SVG 20010904//EN"
 "http://www.w3.org/TR/2001/REC-SVG-20010904/DTD/svg10.dtd">
<svg version="1.0" xmlns="http://www.w3.org/2000/svg"
 width="1024.000000pt" height="1024.000000pt" viewBox="0 0 1024.000000 1024.000000"
 preserveAspectRatio="xMidYMid meet">
<metadata>
Created by potrace 1.14, written by Peter Selinger 2001-2017
</metadata>
<g transform="translate(0.000000,1024.000000) scale(0.100000,-0.100000)"
fill="#000000" stroke="none">
<path d="M4865 8875 c-11 -2 -69 -9 -130 -15 -364 -38 -762 -177 -1115 -388
-92 -55 -180 -113 -180 -119 0 -2 6 -1 13 3 7 4 8 3 4 -2 -5 -5 -16 -9 -25 -9
-9 0 -16 -6 -15 -12 2 -7 0 -12 -5 -11 -15 3 -42 -15 -35 -25 3 -5 2 -7 -4 -4
-14 9 -165 -122 -157 -135 4 -6 3 -8 -3 -5 -5 3 -33 -16 -61 -43 -29 -28 -49
-50 -46 -50 7 0 -172 -199 -205 -227 -14 -13 -22 -23 -17 -23 6 0 3 -6 -5 -12
-8 -7 -25 -25 -38 -40 l-24 -27 23 4 c12 2 19 1 16 -3 -4 -4 -12 -8 -17 -8 -5
-1 -13 -2 -19 -3 -5 0 -10 -8 -10 -17 0 -9 5 -12 13 -8 8 5 8 3 -2 -9 -7 -9
-17 -15 -21 -12 -11 7 -32 -21 -28 -37 1 -7 -12 -34 -30 -60 -35 -51 -51 -63
-31 -25 9 17 9 19 0 11 -7 -6 -13 -18 -15 -27 -1 -8 -8 -22 -15 -31 -7 -8 -9
-21 -5 -27 4 -8 3 -9 -4 -5 -7 4 -12 4 -13 -1 -2 -27 -9 -45 -27 -70 -10 -15
-24 -39 -31 -53 -10 -21 -9 -22 1 -6 27 40 166 216 257 326 185 222 366 395
596 566 352 261 779 440 1220 511 138 22 570 25 710 5 281 -41 504 -107 709
-209 96 -48 177 -104 169 -116 -3 -5 -2 -7 4 -4 5 3 19 0 30 -8 21 -15 25 -37
8 -52 -4 -5 -5 -2 0 6 6 11 4 13 -8 8 -9 -3 -47 7 -85 22 -37 16 -108 43 -158
61 -49 18 -92 39 -97 46 -4 7 -24 16 -43 20 -20 4 -31 10 -25 14 16 10 -172
66 -319 94 -188 37 -315 49 -530 48 -226 0 -395 -22 -610 -76 -327 -83 -723
-282 -1022 -514 -120 -94 -561 -519 -552 -533 3 -5 0 -9 -6 -9 -6 0 -8 -5 -4
-12 4 -6 3 -8 -4 -4 -13 8 -44 -33 -35 -47 3 -6 1 -7 -5 -4 -10 7 -57 -52
-165 -209 -108 -157 -118 -174 -111 -185 4 -7 3 -9 -3 -6 -11 7 -89 -129 -87
-150 1 -7 -2 -11 -6 -8 -11 7 -92 -175 -86 -192 3 -8 2 -12 -3 -9 -12 8 -43
-72 -35 -86 4 -6 2 -8 -4 -4 -13 8 -26 -29 -16 -45 5 -8 3 -9 -6 -4 -10 6 -12
4 -7 -8 4 -10 2 -17 -4 -17 -6 0 -9 -9 -6 -20 3 -11 1 -18 -3 -15 -11 7 -33
-62 -24 -76 4 -7 3 -9 -3 -6 -6 4 -27 -54 -51 -141 -63 -226 -126 -583 -138
-784 l-7 -116 54 1 54 2 2 60 c20 487 153 982 390 1448 90 177 222 365 245
350 6 -3 8 -2 5 4 -9 14 22 55 35 47 6 -4 8 -2 5 3 -4 6 13 33 38 60 l45 48
-26 -50 c-14 -27 -31 -53 -38 -57 -6 -4 -7 -8 -2 -8 6 0 1 -6 -9 -14 -11 -8
-24 -12 -29 -9 -5 4 -6 1 -2 -5 4 -6 -3 -29 -14 -52 -11 -22 -18 -40 -15 -40
2 0 16 23 30 50 14 28 28 50 30 50 3 0 -23 -54 -57 -119 -35 -66 -64 -118 -66
-116 -2 2 11 31 28 65 19 37 28 66 22 72 -10 10 -137 -234 -240 -462 -117
-259 -196 -495 -246 -735 -27 -131 -66 -448 -66 -538 l0 -57 45 0 c51 0 49 -3
60 150 8 115 50 368 86 520 152 630 582 1438 947 1781 293 275 687 488 1088
588 209 53 325 65 599 66 291 0 384 -11 599 -70 134 -37 239 -76 349 -131 82
-41 200 -118 219 -143 12 -14 11 -15 -5 -2 -10 8 -28 15 -40 17 -13 1 -38 9
-57 18 -26 12 -28 14 -10 11 14 -3 19 -2 12 1 -6 3 -10 10 -6 15 3 5 -7 4 -23
-2 -18 -7 -29 -7 -31 0 -2 5 -10 7 -19 4 -10 -4 -14 -2 -10 4 5 7 -1 9 -15 5
-13 -3 -19 -1 -15 5 4 6 -4 8 -21 6 -22 -4 -24 -2 -12 7 13 10 12 11 -3 6 -10
-3 -30 -3 -44 0 -19 5 -22 9 -11 16 9 7 4 8 -15 3 -21 -4 -27 -3 -21 6 5 9 1
10 -14 7 -12 -4 -20 -3 -17 1 4 7 -78 31 -188 57 -15 3 -26 8 -24 11 4 3 88
-14 162 -33 15 -4 17 -3 5 4 -8 5 -65 21 -125 35 -449 104 -915 87 -1340 -50
-280 -90 -591 -255 -775 -411 -104 -89 -268 -252 -317 -317 -26 -33 -51 -64
-58 -70 -12 -10 -172 -253 -194 -293 -6 -12 -9 -22 -6 -22 4 0 -1 -7 -9 -16
-17 -17 -12 -39 6 -28 7 4 8 2 4 -5 -4 -6 -11 -9 -16 -6 -12 7 -39 -46 -32
-64 2 -8 0 -11 -5 -8 -5 3 -10 1 -10 -6 0 -23 -150 -297 -158 -289 -4 4 -5 2
-2 -4 4 -6 -20 -69 -52 -140 -163 -360 -276 -784 -307 -1151 l-7 -83 47 0 46
0 0 -39 0 -38 -232 -8 c-128 -4 -235 -9 -237 -11 -2 -2 1 -15 7 -29 l12 -25
183 0 c111 0 197 -4 216 -11 l33 -12 -4 -256 c-4 -295 -7 -308 -89 -349 -107
-53 -204 14 -223 153 -4 28 -11 57 -15 64 -7 11 -81 13 -382 9 -206 -2 -380
-7 -386 -11 -10 -6 -10 -11 0 -21 6 -8 15 -12 20 -9 4 2 7 -1 7 -8 0 -6 8 -9
19 -6 13 3 18 0 15 -8 -4 -9 3 -11 23 -9 l28 4 -27 -11 c-49 -19 -30 -29 56
-29 132 0 144 -10 149 -120 l2 -33 -53 -2 c-56 -2 -66 -7 -76 -41 -11 -35 17
-54 79 -54 30 0 57 -4 60 -10 4 -6 121 -10 313 -11 169 -1 294 -5 277 -9 -26
-6 -22 -8 23 -9 60 -1 96 -16 88 -36 -3 -9 4 -12 25 -11 16 1 35 -2 42 -6 9
-7 8 -8 -3 -6 -8 1 -24 -3 -35 -9 -11 -6 -42 -14 -68 -17 -35 -6 -47 -11 -43
-21 3 -8 -3 -16 -12 -18 -9 -3 65 -5 166 -6 105 -1 192 -5 203 -11 21 -12 26
-58 6 -65 -13 -6 -151 -12 -288 -14 l-86 -1 14 -67 c8 -38 18 -92 23 -122 29
-181 32 -191 48 -191 13 0 14 -2 4 -9 -15 -9 -15 -20 0 -38 6 -7 7 -14 2 -15
-5 -1 25 -4 66 -8 l75 -6 -73 -2 -74 -2 7 -52 c3 -29 10 -64 15 -78 4 -14 11
-47 14 -75 15 -125 28 -175 45 -175 9 0 12 -3 6 -8 -12 -8 -13 -22 -2 -39 5
-7 5 -14 0 -15 -4 -1 26 -4 67 -8 l75 -6 -73 -2 -74 -2 7 -52 c3 -29 10 -64
15 -78 4 -14 11 -47 14 -75 15 -125 28 -175 45 -175 9 0 12 -3 6 -8 -12 -8
-13 -22 -2 -40 5 -6 5 -13 0 -14 -4 -1 26 -4 67 -8 l75 -6 -73 -2 -73 -2 6
-57 c4 -32 10 -69 15 -83 5 -14 11 -47 14 -75 15 -125 28 -175 45 -175 9 0 12
-3 6 -8 -12 -8 -13 -22 -2 -40 5 -6 5 -13 0 -14 -4 -1 26 -4 67 -8 l75 -6 -74
-2 -74 -2 7 -52 c4 -29 11 -66 16 -83 5 -16 16 -73 25 -125 9 -52 20 -119 25
-149 31 -189 32 -191 48 -191 10 0 13 -3 7 -8 -12 -8 -13 -22 -2 -39 5 -7 5
-14 0 -15 -4 -1 26 -4 67 -8 l75 -6 -72 -2 c-82 -2 -79 2 -62 -85 7 -35 17
-57 25 -57 7 0 18 -9 24 -20 6 -11 17 -20 25 -20 22 0 18 -18 -7 -31 -16 -9
-94 -13 -251 -13 -155 -1 -223 -4 -213 -11 8 -5 58 -36 111 -68 l96 -58 -6
-42 c-11 -72 2 -88 96 -121 84 -29 120 -46 193 -95 38 -25 43 -26 290 -35 336
-11 3712 -10 4042 2 257 9 262 10 295 35 52 38 126 72 220 101 48 15 94 35
103 44 12 14 16 38 16 95 0 90 7 97 95 97 48 0 67 6 126 41 38 23 72 45 75 50
3 5 29 16 58 24 72 21 166 107 166 152 0 40 -25 69 -75 85 -40 13 -40 14 -37
58 5 59 16 70 67 70 47 0 95 34 95 68 0 27 -36 70 -62 74 -54 8 -48 85 9 100
18 5 39 18 48 30 25 37 18 68 -26 110 l-40 38 13 68 c12 60 16 67 38 70 77 8
100 27 100 79 0 29 -8 44 -41 75 l-40 38 13 68 c12 64 14 67 43 70 53 5 83 23
94 54 18 51 13 69 -30 110 l-40 38 13 68 c12 64 14 67 43 70 42 4 83 21 89 37
11 31 -8 88 -41 121 l-34 35 13 67 c12 64 14 67 44 70 21 2 35 12 47 32 24 40
21 65 -13 104 l-30 34 12 63 c12 61 15 64 44 67 21 2 35 12 47 32 26 44 21 69
-24 112 l-40 38 13 68 c12 64 14 67 43 70 50 5 85 23 91 48 11 42 -4 73 -45
94 -49 24 -52 30 -43 64 6 20 21 34 52 50 34 16 46 27 48 47 3 30 -14 47 -70
70 -22 8 -40 19 -41 25 -1 5 21 11 49 14 56 6 84 23 84 51 0 24 -15 32 -80 44
l-55 10 2 48 c5 84 6 84 145 89 143 4 184 19 229 81 24 34 29 50 29 100 0 117
-69 197 -183 212 -29 4 -56 9 -60 12 -4 3 12 26 36 52 74 79 118 172 102 220
-8 25 -34 34 -53 19 -12 -10 -14 -10 -8 0 18 30 -45 -8 -88 -53 -15 -16 -23
-21 -16 -10 7 11 -6 0 -28 -25 -23 -25 -47 -44 -54 -42 -7 2 -10 0 -6 -4 9 -9
-11 -36 -22 -29 -4 3 -38 -27 -74 -66 -62 -65 -70 -70 -103 -67 -42 3 -43 6
-78 118 -14 47 -33 99 -41 117 l-14 32 63 43 c279 188 493 397 585 571 29 55
33 69 30 124 -6 102 -58 147 -208 179 -124 26 -470 22 -470 -6 0 -5 44 -8 99
-8 78 0 108 -4 145 -20 25 -12 46 -24 46 -27 0 -3 -51 -3 -112 1 -102 6 -259
-6 -303 -22 -9 -4 -16 3 -21 21 -3 14 -4 28 -2 30 3 3 32 6 66 8 67 3 81 10
64 30 -21 25 10 60 91 99 69 34 77 41 77 66 0 26 -22 69 -44 84 -15 11 -58 10
-52 -1 3 -4 -7 -8 -22 -7 -15 1 -26 -4 -25 -10 1 -6 -17 -15 -40 -19 -35 -6
-39 -8 -22 -15 13 -6 15 -9 5 -9 -8 -1 -26 -4 -40 -6 -22 -5 -23 -4 -5 5 18 9
17 10 -8 7 -23 -4 -25 -2 -15 11 11 13 11 14 0 8 -15 -9 -72 11 -72 25 0 5
-13 7 -30 5 l-30 -3 38 37 c20 20 51 44 67 53 17 8 41 27 54 41 25 26 25 26 5
52 -29 39 -71 61 -86 46 -9 -9 -7 -17 10 -35 28 -29 28 -37 0 -37 -16 0 -19 3
-10 8 9 7 8 13 -8 27 -21 19 -21 19 -43 -6 -12 -14 -18 -18 -13 -9 4 8 -9 -3
-29 -25 -21 -22 -34 -33 -29 -25 6 11 4 10 -7 -2 -9 -9 -19 -15 -21 -12 -3 2
-11 -3 -19 -13 -12 -14 -12 -16 0 -8 10 5 12 4 7 -3 -11 -18 3 -14 31 8 14 11
29 17 34 14 5 -3 9 0 9 7 0 7 3 9 7 6 3 -4 14 -1 23 5 9 7 2 0 -14 -15 -17
-16 -41 -36 -54 -44 -22 -15 -25 -14 -58 18 -60 58 -131 178 -159 269 -72 233
-201 506 -335 708 -272 412 -613 718 -1065 957 l-110 58 63 -58 c34 -31 74
-67 88 -78 19 -15 22 -22 13 -28 -8 -5 -48 11 -103 41 -50 26 -128 63 -173 81
-45 18 -79 37 -76 42 3 6 1 7 -6 3 -11 -7 -86 12 -78 20 2 3 17 0 32 -6 15 -6
30 -9 32 -7 8 9 -209 80 -246 81 -22 0 -35 3 -30 7 10 5 -19 20 -46 23 -5 1
-15 4 -20 8 -21 13 -138 36 -153 30 -9 -3 -13 -1 -9 5 5 7 0 9 -13 6 -11 -3
-28 -2 -37 3 -10 4 -20 8 -23 8 -3 1 -9 4 -15 8 -12 7 -102 19 -270 34 -67 7
-375 13 -400 9z m-312 -62 c-7 -2 -21 -2 -30 0 -10 3 -4 5 12 5 17 0 24 -2 18
-5z m454 -170 c-20 -2 -52 -2 -70 0 -17 2 0 4 38 4 39 0 53 -2 32 -4z m191 0
c-10 -2 -26 -2 -35 0 -10 3 -2 5 17 5 19 0 27 -2 18 -5z m-330 -10 c-10 -2
-26 -2 -35 0 -10 3 -2 5 17 5 19 0 27 -2 18 -5z m1663 -180 c13 -17 13 -17 -6
-3 -11 8 -22 16 -24 17 -2 2 0 3 6 3 6 0 17 -8 24 -17z m-1553 -70 c-10 -2
-26 -2 -35 0 -10 3 -2 5 17 5 19 0 27 -2 18 -5z m269 1 c-3 -3 -12 -4 -19 -1
-8 3 -5 6 6 6 11 1 17 -2 13 -5z m122 -200 c643 -84 1207 -382 1593 -844 88
-105 228 -310 228 -334 0 -27 -20 -28 -55 -1 -19 14 -35 24 -35 21 0 -4 -8 2
-19 13 -23 23 -122 61 -159 61 -104 0 -274 -229 -356 -477 -15 -46 -30 -83
-32 -83 -3 0 -22 13 -42 30 -65 51 -147 82 -236 89 l-81 6 -18 51 c-30 83 -83
144 -160 183 -59 30 -77 35 -136 34 -131 -2 -287 -79 -360 -177 -21 -28 -54
-80 -72 -116 -33 -62 -34 -63 -37 -33 -9 94 120 413 175 431 6 2 19 -11 28
-28 23 -44 57 -58 90 -36 34 23 65 74 65 110 0 31 -42 78 -94 106 -26 13 -29
13 -45 -7 -10 -12 -35 -24 -62 -28 -24 -4 -58 -16 -75 -26 -42 -25 -107 -110
-140 -183 -43 -95 -134 -481 -134 -572 l0 -47 -22 20 c-34 31 -78 50 -132 58
l-48 8 48 41 c53 46 108 149 142 272 35 127 4 302 -74 419 -94 142 -287 235
-488 235 -139 0 -139 1 -37 -99 65 -63 97 -103 120 -152 38 -77 61 -194 59
-299 -1 -41 -3 -60 -5 -42 -4 33 -5 34 -25 15 -12 -10 -18 -13 -15 -7 4 7 0
15 -9 18 -8 3 -12 2 -9 -4 3 -6 -1 -7 -9 -4 -9 3 -13 11 -9 17 3 6 1 7 -6 3
-6 -4 -23 0 -36 8 -23 15 -25 15 -25 -2 0 -10 -6 -24 -12 -31 -10 -11 -10 -13
0 -7 7 4 12 1 12 -8 0 -8 10 -31 21 -51 12 -20 19 -39 15 -42 -3 -3 -41 -5
-84 -4 -96 2 -154 -11 -249 -55 -71 -34 -200 -123 -278 -193 l-40 -36 39 42
39 42 -26 44 c-25 42 -51 68 -110 109 -13 9 -32 38 -42 65 -10 26 -31 67 -47
91 -34 50 -130 117 -153 108 -9 -3 -14 -2 -11 3 6 9 -27 21 -54 20 -10 0 -8
-3 5 -9 17 -7 16 -9 -10 -9 -81 -2 -182 -57 -211 -114 l-17 -32 24 22 c52 47
157 55 235 19 67 -31 67 -51 -1 -52 -35 0 -66 -9 -101 -28 -28 -15 -57 -28
-65 -29 -23 -4 -40 -18 -50 -41 -7 -16 -8 -14 -4 14 5 33 4 33 -6 10 -6 -14
-11 -55 -11 -92 1 -38 -1 -68 -3 -68 -14 0 -48 91 -49 130 -1 34 -7 51 -26 69
-21 21 -22 24 -5 17 17 -6 17 -4 -4 18 -13 14 -47 58 -75 99 -28 41 -88 126
-134 187 l-82 113 27 46 c114 196 381 462 620 618 320 209 733 343 1178 383
116 11 349 3 494 -16z m-2109 -18 c0 -2 -8 -10 -17 -17 -16 -13 -17 -12 -4 4
13 16 21 21 21 13z m-40 -40 c0 -2 -8 -10 -17 -17 -16 -13 -17 -12 -4 4 13 16
21 21 21 13z m160 -429 c0 -2 -15 -16 -32 -33 l-33 -29 29 33 c28 30 36 37 36
29z m-100 -110 c0 -2 -10 -12 -22 -23 l-23 -19 19 23 c18 21 26 27 26 19z
m-380 -61 c0 -2 -8 -10 -17 -17 -16 -13 -17 -12 -4 4 13 16 21 21 21 13z m320
-10 c0 -2 -8 -10 -17 -17 -16 -13 -17 -12 -4 4 13 16 21 21 21 13z m-30 -40
c0 -2 -8 -10 -17 -17 -16 -13 -17 -12 -4 4 13 16 21 21 21 13z m-350 -20 c0
-2 -8 -10 -17 -17 -16 -13 -17 -12 -4 4 13 16 21 21 21 13z m320 -20 c0 -2 -8
-10 -17 -17 -16 -13 -17 -12 -4 4 13 16 21 21 21 13z m-370 -39 c0 -2 -10 -12
-22 -23 l-23 -19 19 23 c18 21 26 27 26 19z m300 -57 c-12 -16 -24 -30 -26
-30 -3 0 4 14 16 30 12 17 24 30 26 30 3 0 -4 -13 -16 -30z m-430 -114 c0 -2
-8 -10 -17 -17 -16 -13 -17 -12 -4 4 13 16 21 21 21 13z m280 -116 c-6 -11
-13 -20 -16 -20 -2 0 0 9 6 20 6 11 13 20 16 20 2 0 0 -9 -6 -20z m3974 -66
c24 -9 20 -19 -39 -97 -95 -124 -160 -270 -215 -480 l-23 -87 -33 59 -33 59
25 94 c47 177 178 403 256 441 37 19 40 19 62 11z m-3907 -311 c-3 -10 -5 -4
-5 12 0 17 2 24 5 18 2 -7 2 -21 0 -30z m126 3 c1 -5 -11 -13 -28 -18 -31 -10
-52 -18 -95 -37 l-25 -10 27 5 c26 6 106 -7 179 -28 40 -12 47 -35 13 -48 -12
-5 -25 -14 -29 -19 -3 -6 -11 -11 -17 -11 -6 0 -5 7 3 17 10 11 10 14 2 9 -7
-4 -13 -3 -13 3 0 6 -7 7 -17 4 -11 -4 -14 -3 -9 6 4 6 16 9 27 6 10 -4 19 -3
19 2 0 13 -58 15 -65 3 -3 -5 -14 -10 -23 -10 -15 0 -15 2 -2 10 17 11 10 13
-14 4 -9 -3 -13 -11 -9 -17 4 -6 0 -8 -11 -4 -11 5 -15 3 -10 -5 5 -7 2 -9 -8
-5 -9 3 -24 -4 -36 -16 -27 -28 -55 -95 -48 -113 3 -8 1 -14 -4 -14 -6 0 -10
-10 -9 -22 0 -22 1 -22 10 -3 6 14 8 0 6 -47 -2 -38 1 -62 5 -55 5 7 6 -5 3
-28 -4 -30 -3 -35 4 -20 8 16 10 10 9 -25 -1 -28 9 -69 26 -110 15 -36 33 -77
39 -92 6 -15 8 -30 4 -34 -14 -14 -66 49 -107 127 -32 62 -43 98 -56 181 -23
155 -9 221 68 304 24 26 36 44 28 40 -8 -4 1 7 20 24 19 18 49 39 65 46 32 15
74 15 78 0z m4506 -114 c64 -127 134 -343 175 -545 21 -102 56 -367 69 -532
l12 -140 93 -5 c98 -5 112 -12 112 -57 0 -23 -1 -23 -167 -25 -93 0 -175 -1
-183 -2 -9 -1 -16 -13 -18 -33 l-3 -32 166 -3 c151 -3 168 -5 181 -22 27 -38
11 -474 -20 -534 -37 -72 -117 -106 -191 -81 -52 18 -73 59 -81 162 l-6 77
-919 0 -919 0 11 24 c7 15 23 26 41 30 17 3 426 6 909 6 483 0 880 4 883 9 3
4 3 31 -1 60 l-6 51 -954 0 -955 0 -5 21 c-5 17 -12 20 -39 17 -29 -3 -33 -1
-36 22 l-3 25 -14 -25 c-11 -18 -15 -67 -17 -174 -2 -82 -6 -171 -9 -198 -6
-42 -10 -48 -31 -48 -36 0 -43 31 -34 151 16 183 15 193 -20 206 -27 10 -30
16 -30 53 l0 42 38 -3 c25 -2 47 4 67 18 17 12 107 72 200 135 94 62 258 178
365 258 107 79 368 268 580 420 212 152 417 299 455 327 101 72 156 101 162
85 3 -8 19 -29 35 -48 76 -87 76 -249 -1 -288 -43 -23 -122 -21 -153 4 l-25
19 0 -53 c0 -61 -17 -101 -54 -129 -38 -27 -108 -33 -149 -12 l-33 17 7 -34
c15 -79 -46 -144 -127 -136 -23 3 -50 8 -59 12 -15 7 -18 3 -18 -27 0 -53 -15
-84 -50 -102 -37 -19 -98 -22 -128 -6 -11 6 -22 11 -24 11 -2 0 -3 -37 -3 -83
0 -94 -14 -126 -67 -153 -40 -21 -112 -21 -160 0 l-38 16 0 -49 c0 -42 -4 -53
-29 -74 -36 -30 -89 -41 -125 -27 -36 13 -43 13 -28 -2 7 -7 12 -25 12 -40 l0
-28 124 0 124 0 109 71 c59 40 257 183 438 318 182 136 361 269 398 296 119
87 272 195 279 197 14 6 -96 417 -156 587 -9 24 -18 62 -21 85 l-5 41 20 -33
c11 -17 33 -58 49 -90z m-4756 89 c-4 -15 10 -14 26 2 11 10 13 10 7 0 -4 -7
-3 -13 2 -13 25 0 3 -30 -37 -51 -25 -13 -49 -28 -53 -34 -12 -16 -9 6 7 62
12 39 19 50 33 48 9 -1 16 -8 15 -14z m928 -18 c13 -16 12 -17 -3 -4 -10 7
-18 15 -18 17 0 8 8 3 21 -13z m807 -100 l37 -16 -67 -8 c-79 -9 -123 -22
-198 -59 -124 -62 -240 -175 -323 -315 -19 -32 -32 -45 -42 -41 -8 3 -27 1
-41 -4 -15 -6 -23 -6 -19 -1 3 5 1 12 -4 16 -15 9 63 153 118 219 139 168 403
270 539 209z m-1592 -28 c1 -8 -5 -12 -18 -10 -13 3 -18 0 -15 -9 3 -7 -1 -13
-9 -13 -14 0 -10 11 14 40 16 18 25 16 28 -8z m464 21 c0 -2 -7 -7 -16 -10 -8
-3 -12 -2 -9 4 6 10 25 14 25 6z m-685 -131 c0 -69 -3 -125 -7 -125 -5 0 -8
-8 -9 -17 -1 -10 -5 0 -11 22 -10 42 -5 109 13 195 6 27 11 50 12 50 1 0 2
-56 2 -125z m3389 105 c14 -5 26 -17 26 -26 0 -33 -34 -55 -134 -86 -119 -36
-201 -75 -274 -130 -45 -34 -58 -38 -85 -33 -63 14 -62 18 20 95 97 91 178
145 257 170 67 21 150 25 190 10z m-2509 -22 c29 -16 28 -16 -39 -11 -48 4
-67 3 -62 -5 3 -6 0 -17 -8 -25 -8 -8 -13 -16 -11 -19 2 -2 -5 -4 -15 -5 -23
-2 -25 7 -7 26 9 11 9 12 0 7 -7 -4 -18 -16 -24 -28 -9 -16 -8 -19 3 -13 7 4
3 -2 -9 -13 -41 -41 -41 -169 2 -254 8 -17 15 -38 15 -46 0 -28 -36 16 -64 78
-55 123 -55 245 0 305 24 26 28 27 107 23 47 -3 95 -11 112 -20z m4678 -15
c-7 -2 -19 -2 -25 0 -7 3 -2 5 12 5 14 0 19 -2 13 -5z m-4713 -52 c0 -5 -7
-12 -16 -15 -14 -5 -15 -4 -4 9 14 17 20 19 20 6z m-450 -46 c10 -12 10 -15
-2 -15 -8 0 -32 -16 -54 -35 -21 -19 -32 -34 -24 -33 11 2 15 -6 14 -28 0 -19
5 -31 12 -31 7 0 11 4 8 9 -8 12 5 10 20 -4 11 -11 11 -15 -3 -25 -14 -12 -14
-12 3 -6 19 6 19 6 0 -14 -10 -11 -23 -20 -28 -19 -6 1 -12 -8 -14 -19 -6 -31
-34 -58 -43 -43 -5 7 -7 -1 -7 -20 2 -52 -10 -49 -37 9 -48 105 -41 195 20
256 28 28 40 33 78 33 27 0 49 -6 57 -15z m-15 -55 c-17 -11 -30 -28 -30 -39
0 -11 -3 -22 -7 -26 -3 -4 -5 1 -4 12 2 10 -1 23 -6 30 -11 14 20 38 53 40 21
2 21 1 -6 -17z m-325 -15 c0 -9 -6 -12 -16 -8 -13 5 -13 7 -2 14 17 11 18 11
18 -6z m1666 -103 c7 -4 -12 -8 -41 -9 -30 -1 -63 -7 -75 -13 -35 -19 -79 -90
-100 -162 -12 -37 -23 -68 -26 -68 -3 0 -14 4 -24 10 -16 8 -17 15 -9 42 19
66 61 137 105 178 46 42 47 42 101 36 31 -4 61 -10 69 -14z m-631 -11 l40 -18
-90 -5 c-98 -6 -128 -14 -118 -31 4 -7 0 -8 -12 -3 -15 5 -16 4 -6 -8 9 -11 9
-16 0 -22 -7 -4 -9 -3 -5 4 15 25 -22 17 -51 -11 -28 -26 -30 -33 -21 -51 10
-19 10 -20 -5 -8 -14 12 -15 11 -8 -16 5 -16 5 -35 1 -42 -5 -7 -6 -20 -2 -28
3 -10 1 -13 -6 -8 -16 10 -23 -24 -13 -67 5 -20 5 -39 1 -42 -15 -9 -50 53
-61 109 -25 121 34 221 151 257 49 14 163 9 205 -10z m-1152 -62 c-21 -22 -50
-62 -64 -88 l-26 -48 48 -2 c41 0 119 -23 119 -33 0 -2 -8 -4 -17 -5 -51 -3
-72 -8 -64 -16 5 -5 32 -7 59 -6 64 5 63 -11 -3 -28 -27 -8 -71 -27 -97 -43
-55 -33 -59 -27 -22 33 23 36 24 39 6 23 -34 -30 -57 -103 -56 -181 0 -67 18
-145 33 -145 4 0 7 -8 8 -17 0 -10 15 -54 32 -98 l30 -80 -29 35 c-39 46 -85
142 -100 209 -17 73 -8 220 19 295 12 33 21 72 21 88 0 73 55 148 107 148 l34
0 -38 -41z m1017 17 c0 -3 -4 -8 -10 -11 -5 -3 -10 -1 -10 4 0 6 5 11 10 11 6
0 10 -2 10 -4z m1901 -20 l23 -16 -35 0 c-52 0 -132 -45 -183 -101 l-45 -50
-10 39 c-16 57 1 98 48 119 84 36 159 40 202 9z m-2321 -9 c19 -7 34 -16 33
-22 -1 -5 5 -13 12 -18 8 -4 12 -14 9 -22 -4 -8 -10 -12 -16 -9 -14 9 -98 -6
-98 -17 0 -6 6 -7 13 -3 9 5 9 3 -1 -7 -11 -12 -14 -12 -21 0 -7 11 -13 11
-32 0 -43 -22 -78 -52 -73 -61 3 -4 1 -8 -5 -8 -5 0 -12 6 -15 13 -3 6 -3 0 0
-15 4 -17 2 -28 -5 -28 -12 0 -15 -33 -4 -44 4 -4 6 -23 4 -42 -1 -18 2 -34 7
-34 6 0 8 -10 4 -22 -4 -16 -2 -19 8 -13 8 5 11 4 6 -3 -8 -13 14 -63 25 -56
4 2 7 -4 6 -14 -1 -20 93 -219 126 -267 45 -65 -16 0 -75 78 -70 94 -142 238
-164 326 -30 121 3 243 76 282 41 21 127 24 180 6z m332 -20 c-12 -13 -20 -26
-17 -29 3 -2 -2 -5 -10 -5 -11 0 -8 8 12 29 15 15 29 28 32 28 2 0 -5 -10 -17
-23z m-877 -7 c-3 -5 -16 -10 -28 -10 -15 0 -18 -3 -10 -8 8 -5 -2 -12 -27
-19 -48 -12 -52 0 -7 27 33 21 83 27 72 10z m1210 -10 c3 -5 -3 -10 -14 -10
-12 0 -21 -5 -21 -11 0 -5 -4 -7 -10 -4 -10 6 -15 -9 -10 -30 1 -5 -2 -7 -5
-3 -10 9 -45 -9 -45 -24 0 -5 9 -8 20 -5 11 3 23 1 26 -4 3 -5 17 -9 32 -9 60
0 99 -19 117 -57 22 -45 17 -79 -31 -243 -53 -181 -71 -254 -79 -313 -5 -46
-2 -39 30 53 71 205 203 442 270 486 32 21 64 13 109 -27 95 -82 166 -311 166
-531 0 -48 4 -89 9 -92 15 -10 22 138 11 240 -13 115 -57 257 -100 321 l-29
43 37 -19 c81 -42 165 -160 209 -296 22 -68 26 -99 27 -210 0 -71 -3 -170 -7
-220 -5 -60 -3 -148 8 -265 21 -240 21 -230 -15 -230 -41 0 -46 17 -54 170
-10 182 -12 190 -47 190 -22 0 -32 6 -39 25 -34 86 -31 82 -41 57 -5 -12 -15
-25 -24 -28 -19 -8 -19 -53 0 -249 8 -82 15 -153 15 -157 0 -13 -48 -9 -57 5
-4 6 -12 46 -18 87 l-10 75 -856 3 c-731 2 -858 4 -862 16 -14 36 62 40 901
43 l812 4 0 37 c0 20 -3 47 -6 60 l-6 22 -871 0 c-744 0 -869 2 -852 14 21 14
42 16 37 4 -1 -5 6 -8 16 -8 10 0 19 7 19 15 0 8 -4 12 -9 9 -4 -3 -8 2 -8 10
0 9 6 15 13 13 7 -1 11 8 9 24 -2 26 -1 27 72 34 l75 7 -76 114 c-66 101 -79
126 -82 157 -1 5 -5 6 -10 2 -5 -3 -13 0 -17 6 -4 8 -3 9 4 5 8 -5 10 2 4 26
-23 103 6 214 65 253 37 25 175 28 198 4 14 -14 11 -15 -34 -16 -55 -2 -107
-22 -104 -41 2 -7 -3 -11 -10 -9 -6 1 -11 -4 -9 -11 1 -8 -2 -11 -7 -7 -11 6
-31 -26 -30 -47 0 -7 5 -4 10 7 22 46 200 103 213 69 3 -7 2 -13 -2 -12 -7 2
-80 -20 -95 -29 -4 -3 -3 -11 4 -19 7 -9 8 -14 1 -14 -6 0 -14 5 -17 10 -10
17 -24 1 -20 -21 3 -15 0 -19 -10 -15 -9 3 -15 -1 -15 -10 0 -8 -4 -12 -10 -9
-5 3 -10 0 -11 -7 0 -10 -2 -10 -6 -1 -3 10 -9 9 -21 -4 -19 -18 -26 -58 -16
-82 4 -9 9 -24 11 -35 5 -27 69 -137 75 -130 3 3 9 0 14 -7 4 -8 3 -10 -4 -5
-18 11 -14 -7 6 -33 36 -49 88 -91 112 -91 22 0 19 5 -33 58 -31 32 -57 61
-57 65 0 11 43 -13 56 -31 6 -8 16 -12 22 -8 6 3 14 1 18 -5 4 -8 3 -9 -4 -5
-26 16 -10 -12 20 -34 31 -23 117 -38 224 -39 l41 -1 6 118 c7 139 33 248 84
352 21 41 37 81 36 88 -1 7 1 11 4 8 8 -8 62 67 56 77 -2 4 -1 7 4 5 4 -1 31
20 58 46 82 79 146 123 225 157 51 21 93 48 132 85 57 54 72 62 83 44z m-95
-23 c0 -2 -12 -14 -27 -28 l-28 -24 24 28 c23 25 31 32 31 24z m-460 -297
c-20 -13 -40 -12 -40 1 0 5 4 8 8 5 4 -2 14 -1 22 4 8 5 17 7 19 4 3 -3 -1 -9
-9 -14z m-166 -18 c3 -5 -1 -9 -9 -9 -8 0 -12 4 -9 9 3 4 7 8 9 8 2 0 6 -4 9
-8z m-246 -169 c-10 -2 -26 -2 -35 0 -10 3 -2 5 17 5 19 0 27 -2 18 -5z m-457
-201 c-9 -3 -6 -11 10 -28 12 -13 19 -24 15 -24 -5 0 -2 -8 5 -17 7 -10 -2 -5
-21 12 -19 16 -39 34 -45 38 -13 11 24 39 38 30 7 -4 7 -8 -2 -11z m6259 -65
c0 -2 -10 -12 -22 -23 l-23 -19 19 23 c18 21 26 27 26 19z m-55 -67 c-3 -5
-12 -10 -18 -10 -7 0 -6 4 3 10 19 12 23 12 15 0z m-35 -24 c0 -12 -131 -117
-151 -121 -22 -4 -22 -4 -6 13 10 9 25 17 35 17 9 0 17 5 17 12 0 16 43 55 54
49 4 -3 16 3 26 14 18 20 25 24 25 16z m-80 -9 c0 -1 -26 -27 -57 -57 l-58
-55 55 58 c50 53 60 62 60 54z m-3226 -136 c16 -7 35 -6 55 2 33 12 61 3 69
-23 3 -7 0 -10 -7 -6 -6 4 -11 1 -11 -6 -1 -7 -3 -29 -5 -48 -2 -19 -7 -110
-11 -202 -6 -168 -6 -168 -30 -168 -33 0 -44 28 -44 109 l0 71 -297 2 c-297 3
-298 3 -299 24 -2 31 27 34 339 34 l268 0 -3 58 -3 57 -325 5 -325 5 -3 33
c-6 65 -22 62 307 62 165 0 311 -4 325 -9z m-937 -153 c-3 -8 -6 -5 -6 6 -1
11 2 17 5 13 3 -3 4 -12 1 -19z m-2864 -185 c-7 -2 -21 -2 -30 0 -10 3 -4 5
12 5 17 0 24 -2 18 -5z m3405 -410 c-387 -702 -388 -705 -406 -698 -26 10
-232 147 -232 155 0 7 43 87 153 285 27 50 77 141 110 203 l61 112 173 0 173
0 -32 -57z m450 22 c16 -20 50 -73 76 -118 191 -336 178 -324 296 -259 43 23
81 42 83 42 6 0 -18 -83 -94 -323 -56 -175 -61 -187 -82 -182 -12 3 -128 30
-257 61 -129 30 -236 57 -239 59 -6 7 -6 7 72 50 80 44 97 59 97 87 0 11 -63
130 -140 264 -77 135 -140 247 -140 251 0 3 14 28 31 55 l31 48 118 0 119 0
29 -35z m-3023 -15 c13 -6 15 -9 5 -9 -8 0 -22 4 -30 9 -18 12 -2 12 25 0z
m143 -27 c-10 -2 -26 -2 -35 0 -10 3 -2 5 17 5 19 0 27 -2 18 -5z m5179 -69
c-8 -46 -7 -45 -55 -46 -50 0 -62 7 -62 37 0 31 24 44 79 45 l44 0 -6 -36z
m-3538 -1131 c11 -38 29 -104 41 -148 12 -44 35 -126 52 -183 16 -57 28 -105
25 -108 -3 -3 -35 13 -72 36 -88 54 -118 60 -145 29 -12 -13 -70 -125 -130
-249 l-109 -225 -82 -3 c-103 -4 -166 16 -209 65 -29 33 -31 40 -25 81 10 66
38 132 95 223 28 43 73 115 101 160 104 165 104 165 -71 269 -8 5 -11 12 -7
16 8 8 458 102 494 103 19 1 25 -9 42 -66z m2086 -218 c73 -121 157 -258 234
-383 37 -59 61 -129 61 -177 0 -53 -25 -108 -87 -194 -57 -79 -73 -94 -73 -68
0 16 -61 122 -292 505 -104 171 -188 315 -188 319 0 5 56 40 123 80 92 53 125
68 133 60 6 -7 46 -70 89 -142z m-642 -722 c16 -16 47 -19 309 -23 l291 -5 30
-57 c55 -107 47 -193 -24 -229 -57 -29 -153 -39 -383 -39 -257 0 -246 5 -246
-122 0 -49 -4 -88 -10 -88 -5 0 -31 23 -57 52 -26 29 -106 114 -176 190 l-129
138 26 31 c15 17 97 105 184 195 l157 164 5 -95 c4 -73 9 -98 23 -112z m-1515
-41 l472 -3 0 -145 0 -144 -367 0 c-366 0 -368 0 -418 24 -70 33 -100 69 -151
182 -24 54 -44 100 -44 102 0 2 8 0 18 -4 9 -5 230 -10 490 -12z"/>
<path d="M3593 6783 c15 -2 39 -2 55 0 15 2 2 4 -28 4 -30 0 -43 -2 -27 -4z"/>
<path d="M3479 6753 l-24 -28 30 25 c17 14 32 26 34 28 2 1 0 2 -6 2 -5 0 -20
-12 -34 -27z"/>
<path d="M7624 5772 c12 -20 -4 -35 -22 -20 -12 10 -11 7 3 -15 12 -18 20 -54
23 -102 4 -63 1 -79 -17 -108 -54 -88 -198 -90 -252 -4 -15 24 -20 27 -18 12
3 -40 -1 -46 -24 -40 -22 6 -22 5 -19 -73 5 -91 -11 -133 -58 -157 -33 -17
-112 -20 -139 -5 -16 8 -18 5 -13 -42 3 -36 1 -53 -9 -59 -26 -16 159 -10 191
6 16 8 30 11 32 6 2 -5 83 -11 181 -13 201 -3 197 -5 197 74 0 47 0 47 -26 38
-44 -17 -82 -12 -89 11 -11 32 -30 16 -27 -23 2 -20 -2 -39 -10 -45 -13 -12
-152 -43 -187 -43 -43 0 -27 19 52 65 45 26 98 60 117 74 97 74 143 96 204 97
36 1 62 6 64 13 2 7 14 24 27 39 l22 27 -15 142 c-14 130 -17 141 -33 132 -29
-15 -112 -11 -138 8 -14 9 -21 11 -17 5z"/>
<path d="M6785 5195 l-40 -34 36 -1 c34 0 37 3 42 33 2 17 4 33 3 34 -1 1 -19
-14 -41 -32z"/>
<path d="M7720 5167 c0 -3 12 -12 26 -22 15 -9 23 -12 20 -6 -7 11 -46 35 -46
28z"/>
<path d="M7877 5163 c-9 -9 -9 -415 1 -429 16 -25 49 -34 81 -23 52 18 56 36
59 257 l4 202 -69 0 c-39 0 -73 -3 -76 -7z"/>
<path d="M5742 4925 c0 -16 2 -22 5 -12 2 9 2 23 0 30 -3 6 -5 -1 -5 -18z"/>
<path d="M2861 6711 c-21 -13 3 -41 29 -34 25 7 26 21 3 19 -10 0 -17 5 -15
12 2 14 1 14 -17 3z"/>
<path d="M3095 6319 c-4 -6 -5 -12 -2 -15 2 -3 7 2 10 11 7 17 1 20 -8 4z"/>
<path d="M3233 6135 c-46 -20 -41 -25 7 -9 23 8 52 12 65 10 14 -3 25 0 25 5
0 14 -60 10 -97 -6z"/>
<path d="M2570 5396 c0 -2 8 -10 18 -17 15 -13 16 -12 3 4 -13 16 -21 21 -21
13z"/>
<path d="M6274 8402 c4 -3 14 -7 22 -8 9 -1 13 0 10 4 -4 3 -14 7 -22 8 -9 1
-13 0 -10 -4z"/>
<path d="M1817 8298 c-12 -42 8 -170 98 -638 64 -330 79 -416 89 -495 5 -38 4
-38 -10 10 -65 218 -153 469 -199 562 -108 225 -238 387 -333 417 -20 7 -22 4
-22 -32 0 -82 43 -266 125 -537 67 -223 193 -685 220 -810 l6 -30 -20 20 c-11
11 -59 128 -106 260 -179 500 -198 552 -229 615 l-31 65 -3 -62 c-2 -50 10
-119 63 -340 37 -153 73 -299 80 -326 16 -57 5 -67 -35 -33 -44 37 -191 123
-224 132 -35 8 -48 -9 -40 -51 17 -87 162 -450 268 -670 66 -137 188 -358 214
-387 8 -10 10 -18 4 -18 -6 0 -14 5 -18 11 -9 15 -124 69 -146 69 -37 0 -19
-53 61 -180 44 -68 77 -128 75 -132 -3 -4 -34 -4 -69 -1 -71 6 -196 -10 -253
-34 -92 -38 -137 -104 -112 -163 7 -17 31 -46 54 -67 60 -53 140 -147 203
-235 l55 -78 239 0 c194 0 239 3 239 13 0 8 -17 22 -37 31 -49 22 -75 58 -81
113 -4 35 0 51 17 73 16 23 21 44 21 92 0 338 113 865 272 1271 54 139 208
449 239 483 21 23 23 36 9 62 -5 9 -20 60 -34 112 -45 177 -189 474 -301 625
-65 87 -180 201 -259 256 -38 27 -72 49 -76 49 -4 0 -10 -10 -13 -22z"/>
<path d="M2752 7635 c4 -4 0 -14 -10 -21 -9 -7 -14 -15 -11 -18 3 -3 14 2 23
13 14 15 15 21 4 27 -7 4 -10 4 -6 -1z"/>
<path d="M8060 6649 c-22 -18 -22 -19 -3 -10 12 6 25 16 28 21 9 15 3 12 -25
-11z"/>
<path d="M8156 6592 c-2 -4 4 -14 15 -20 19 -12 19 -11 9 8 -12 22 -16 24 -24
12z"/>
<path d="M2227 5163 c-4 -3 -7 -95 -7 -203 0 -184 1 -199 21 -224 39 -50 118
-27 135 40 4 15 3 50 -2 78 -6 28 -7 63 -3 76 4 14 7 63 8 110 1 114 -9 130
-88 130 -32 0 -61 -3 -64 -7z"/>
<path d="M1357 5019 c-30 -17 -40 -58 -22 -85 l15 -24 380 0 380 0 0 60 0 60
-367 0 c-239 -1 -374 -4 -386 -11z"/>
<path d="M1714 4033 c4 -21 9 -50 12 -65 l6 -28 99 0 c111 0 106 -4 88 80
l-11 50 -100 0 -100 0 6 -37z"/>
<path d="M1755 3708 c13 -86 6 -81 112 -75 52 3 97 7 99 10 2 2 -1 27 -7 56
l-11 51 -100 0 -100 0 7 -42z"/>
<path d="M1814 3413 c4 -21 9 -50 12 -65 l6 -28 99 0 c111 0 106 -4 88 80
l-11 50 -100 0 -100 0 6 -37z"/>
<path d="M1884 3083 c4 -21 9 -50 12 -65 l6 -28 99 0 c111 0 106 -4 88 80
l-11 50 -100 0 -100 0 6 -37z"/>
<path d="M1964 2743 c4 -21 9 -50 12 -65 l6 -28 99 0 c111 0 106 -4 88 80
l-11 50 -100 0 -100 0 6 -37z"/>
<path d="M2034 2413 c4 -21 9 -50 12 -65 l6 -28 99 0 c111 0 106 -4 88 80
l-11 50 -100 0 -100 0 6 -37z"/>
<path d="M2078 2125 c-2 -3 -3 -18 0 -34 4 -26 8 -29 55 -35 83 -10 197 -7
197 4 0 6 -7 24 -15 40 l-16 30 -108 0 c-59 0 -110 -2 -113 -5z"/>
<path d="M2143 1913 c-26 -5 -27 -7 -14 -31 6 -9 13 -34 16 -54 l6 -38 115 0
116 0 -6 28 c-3 15 -8 44 -12 65 l-6 37 -97 -1 c-53 -1 -106 -4 -118 -6z"/>
</g>
</svg>
